<?xml version="1.0" encoding="UTF-8" standalone="no"?>
<!-- Created with Inkscape (http://www.inkscape.org/) -->

<svg
   version="1.1"
   id="svg2"
   xml:space="preserve"
   width="2560"
   height="484.76532"
   viewBox="0 0 2560 484.76532"
   sodipodi:docname="apuesta total logo.ai"
   xmlns:inkscape="http://www.inkscape.org/namespaces/inkscape"
   xmlns:sodipodi="http://sodipodi.sourceforge.net/DTD/sodipodi-0.dtd"
   xmlns="http://www.w3.org/2000/svg"
   xmlns:svg="http://www.w3.org/2000/svg"><defs
     id="defs6"><clipPath
       clipPathUnits="userSpaceOnUse"
       id="clipPath16"><path
         d="M 0,363.574 H 1920 V 0 H 0 Z"
         id="path14" /></clipPath></defs><sodipodi:namedview
     id="namedview4"
     pagecolor="#ffffff"
     bordercolor="#666666"
     borderopacity="1.0"
     inkscape:pageshadow="2"
     inkscape:pageopacity="0.0"
     inkscape:pagecheckerboard="0" /><g
     id="g8"
     inkscape:groupmode="layer"
     inkscape:label="apuesta total logo"
     transform="matrix(1.3333333,0,0,-1.3333333,0,484.76533)"><g
       id="g10"><g
         id="g12"
         clip-path="url(#clipPath16)"><g
           id="g18"
           transform="translate(99.1268,168.3302)"><path
             d="m 0,0 h -2.418 c -23.146,0 -28.327,-9.673 -28.327,-19.691 0,-10.364 6.218,-17.273 16.581,-17.273 5.182,0 12.091,3.11 14.164,5.873 z m 38.691,-81.182 c -8.637,2.764 -19.346,12.091 -22.109,17.618 -8.637,-7.254 -23.491,-14.854 -44.564,-14.854 -44.218,0 -61.145,26.254 -61.145,58.036 0,33.854 29.364,58.036 79.109,58.036 2.418,0 8.291,0 10.018,-0.345 v 11.054 c 0,10.363 -1.382,16.582 -14.509,16.582 -20.036,0 -35.582,-7.255 -50.781,-18.655 l -21.764,37.309 c 22.109,13.473 50.781,25.218 80.145,25.218 33.854,0 57.691,-11.4 64.254,-32.472 2.418,-7.946 2.764,-14.51 2.764,-27.636 l -0.692,-61.491 c 0,-14.854 1.383,-26.945 13.819,-34.891 z"
             style="fill:#ed1c24;fill-opacity:1;fill-rule:nonzero;stroke:none"
             id="path20" /></g><g
           id="g22"
           transform="translate(273.4684,230.8564)"><path
             d="m 0,0 c -9.672,0 -15.545,-4.145 -18.654,-8.981 v -79.8 c 0.691,-2.763 5.527,-4.836 11.4,-4.836 14.163,0 25.218,3.109 25.218,50.09 C 17.964,-15.545 15.891,0 0,0 m 6.564,-140.944 c -10.709,0 -19.691,2.418 -27.982,5.873 1.728,-4.836 2.764,-12.782 2.764,-27.291 v -36.618 l -60.109,-16.237 v 192.072 c 0,21.418 -1.036,40.763 -5.527,59.764 l 55.272,9.326 c 1.727,-4.836 3.109,-10.363 3.8,-15.89 3.8,7.255 20.036,16.236 37.309,16.236 62.527,0 70.127,-51.473 70.127,-84.636 0,-69.436 -27.636,-102.599 -75.654,-102.599"
             style="fill:#ed1c24;fill-opacity:1;fill-rule:nonzero;stroke:none"
             id="path24" /></g><g
           id="g26"
           transform="translate(493.5167,89.9124)"><path
             d="M 0,0 C -4.145,4.836 -6.218,12.437 -7.6,16.236 -17.963,6.909 -33.163,0 -52.163,0 c -32.818,0 -49.745,10.709 -55.964,31.09 -2.763,8.983 -3.454,19.692 -3.454,43.182 v 103.636 l 60.109,9.672 V 58.381 c 0,-11.055 5.527,-13.472 15.89,-13.472 5.873,0 13.473,3.454 18.655,8.981 v 124.018 l 60.109,9.672 V 59.072 c 0,-18.309 3.799,-31.09 8.981,-40.418 z"
             style="fill:#ed1c24;fill-opacity:1;fill-rule:nonzero;stroke:none"
             id="path28" /></g><g
           id="g30"
           transform="translate(664.5815,207.0209)"><path
             d="m 0,0 c 0,17.617 -5.182,28.327 -19,28.327 -12.782,0 -21.073,-7.946 -21.073,-31.782 l 40.073,0 z m -40.073,-42.491 c 0,-11.055 3.8,-32.473 28.673,-32.473 15.545,0 31.436,5.873 46.981,17.964 l 23.146,-34.545 c -23.837,-18.31 -45.945,-25.563 -72.545,-25.563 -57,0 -88.436,34.891 -88.436,92.58 0,58.727 30.745,94.654 81.181,94.654 57,0 80.49,-35.927 80.49,-96.381 v -16.236 z"
             style="fill:#ed1c24;fill-opacity:1;fill-rule:nonzero;stroke:none"
             id="path32" /></g><g
           id="g34"
           transform="translate(815.5719,89.9124)"><path
             d="m 0,0 c -25.564,0 -50.436,8.29 -77.381,22.454 l 21.072,43.527 c 11.746,-7.255 40.764,-22.8 58.382,-22.8 10.708,0 18.654,6.91 18.654,13.473 0,9.673 -5.873,12.436 -23.491,16.237 l -23.145,4.836 c -28.672,5.873 -41.8,23.491 -41.8,48.708 0,36.618 28.673,60.8 73.236,60.8 35.236,0 53.2,-10.709 70.472,-18.309 L 57.345,131.617 c -17.618,9.327 -32.127,13.128 -43.872,13.128 -9.328,0 -15.546,-4.147 -15.546,-10.019 0,-6.218 4.146,-11.055 18.655,-14.163 l 22.109,-4.837 C 70.126,108.817 82.908,91.544 82.908,63.563 82.908,24.872 49.745,0 0,0"
             style="fill:#ed1c24;fill-opacity:1;fill-rule:nonzero;stroke:none"
             id="path36" /></g><g
           id="g38"
           transform="translate(982.0749,89.5669)"><path
             d="m 0,0 c -33.508,0 -55.962,8.636 -55.962,43.181 v 100.527 h -14.509 v 39.382 h 14.509 c 0,17.618 0.345,32.472 2.073,44.218 l 59.762,8.981 C 4.145,220.398 4.145,199.671 4.145,183.09 H 36.964 L 29.018,143.708 H 4.145 V 71.854 c 0,-24.873 3.455,-30.4 18.655,-30.4 5.527,0 11.4,1.382 15.2,3.455 L 45.254,10.363 C 30.055,3.109 14.855,0 0,0"
             style="fill:#ed1c24;fill-opacity:1;fill-rule:nonzero;stroke:none"
             id="path40" /></g><g
           id="g42"
           transform="translate(1125.6758,168.3302)"><path
             d="m 0,0 h -2.419 c -23.144,0 -28.326,-9.673 -28.326,-19.691 0,-10.364 6.217,-17.273 16.582,-17.273 5.182,0 12.09,3.11 14.163,5.873 z m 38.691,-81.182 c -8.636,2.764 -19.346,12.091 -22.109,17.618 -8.636,-7.254 -23.491,-14.854 -44.564,-14.854 -44.218,0 -61.145,26.254 -61.145,58.036 0,33.854 29.364,58.036 79.109,58.036 2.418,0 8.29,0 10.018,-0.345 v 11.054 c 0,10.363 -1.382,16.582 -14.509,16.582 -20.036,0 -35.582,-7.255 -50.781,-18.655 l -21.764,37.309 c 22.109,13.473 50.782,25.218 80.145,25.218 33.854,0 57.691,-11.4 64.254,-32.472 2.418,-7.946 2.764,-14.51 2.764,-27.636 l -0.692,-61.491 c 0,-14.854 1.383,-26.945 13.819,-34.891 z"
             style="fill:#ed1c24;fill-opacity:1;fill-rule:nonzero;stroke:none"
             id="path44" /></g><g
           id="g46"
           transform="translate(1279.9125,89.5669)"><path
             d="m 0,0 c -33.509,0 -55.963,8.636 -55.963,43.181 v 100.527 h -14.509 v 39.382 h 14.509 c 0,17.618 0.345,32.472 2.073,44.218 l 59.763,8.981 C 4.145,220.398 4.145,199.671 4.145,183.09 H 36.964 L 29.018,143.708 H 4.145 V 71.854 c 0,-24.873 3.455,-30.4 18.655,-30.4 5.527,0 11.4,1.382 15.2,3.455 L 45.254,10.363 C 30.055,3.109 14.855,0 0,0"
             style="fill:#000000;fill-opacity:1;fill-rule:nonzero;stroke:none"
             id="path48" /></g><g
           id="g50"
           transform="translate(1413.8069,235.3481)"><path
             d="m 0,0 c -12.437,0 -18.655,-9.328 -18.655,-53.546 0,-34.545 2.073,-49.745 19.001,-49.745 14.163,0 18.654,15.2 18.654,57.691 C 19,-10.019 14.163,0 0,0 m -1.036,-145.436 c -51.128,0 -82.563,33.855 -82.563,92.927 0,55.618 33.854,94.308 86.018,94.308 43.872,0 81.526,-25.218 81.526,-89.126 0,-70.472 -42.491,-98.109 -84.981,-98.109"
             style="fill:#000000;fill-opacity:1;fill-rule:nonzero;stroke:none"
             id="path52" /></g><g
           id="g54"
           transform="translate(1581.3475,89.5669)"><path
             d="m 0,0 c -33.509,0 -55.963,8.636 -55.963,43.181 v 100.527 h -14.509 v 39.382 h 14.509 c 0,17.618 0.345,32.472 2.073,44.218 l 59.763,8.981 C 4.145,220.398 4.145,199.671 4.145,183.09 H 36.964 L 29.018,143.708 H 4.145 V 71.854 c 0,-24.873 3.455,-30.4 18.655,-30.4 5.527,0 11.4,1.382 15.2,3.455 L 45.254,10.363 C 30.055,3.109 14.855,0 0,0"
             style="fill:#000000;fill-opacity:1;fill-rule:nonzero;stroke:none"
             id="path56" /></g><g
           id="g58"
           transform="translate(1724.9484,168.3302)"><path
             d="m 0,0 h -2.419 c -23.144,0 -28.326,-9.673 -28.326,-19.691 0,-10.364 6.217,-17.273 16.582,-17.273 5.182,0 12.09,3.11 14.163,5.873 z m 38.691,-81.182 c -8.636,2.764 -19.346,12.091 -22.109,17.618 -8.636,-7.254 -23.491,-14.854 -44.564,-14.854 -44.218,0 -61.145,26.254 -61.145,58.036 0,33.854 29.364,58.036 79.109,58.036 2.418,0 8.29,0 10.018,-0.345 v 11.054 c 0,10.363 -1.382,16.582 -14.509,16.582 -20.036,0 -35.582,-7.255 -50.781,-18.655 l -21.764,37.309 c 22.109,13.473 50.782,25.218 80.145,25.218 33.854,0 57.691,-11.4 64.254,-32.472 2.418,-7.946 2.764,-14.51 2.764,-27.636 l -0.692,-61.491 c 0,-14.854 1.383,-26.945 13.819,-34.891 z"
             style="fill:#000000;fill-opacity:1;fill-rule:nonzero;stroke:none"
             id="path60" /></g><g
           id="g62"
           transform="translate(1871.3093,89.9124)"><path
             d="m 0,0 c -50.782,0 -51.818,26.254 -51.818,61.836 v 121.599 c 0,23.49 0,52.854 -2.073,64.945 L 5.527,258.398 C 7.254,247.689 8.29,232.144 8.29,213.834 V 81.526 c 0,-31.435 1.037,-39.727 14.509,-39.727 2.073,0 4.146,0.346 6.218,1.037 L 38.691,5.527 C 30.745,2.418 16.582,0 0,0"
             style="fill:#000000;fill-opacity:1;fill-rule:nonzero;stroke:none"
             id="path64" /></g></g></g></g></svg>
